<svg width="100%" height="auto" viewBox="0 0 50 50" fill="none" xmlns="http://www.w3.org/2000/svg"><path d="M25.736 16.02c.126-.66.622-1.082 1.275-1.222.675-.146 1.387.043 1.807.482.379.397.665 1.162.166 2.508-.476 1.284-1.648 3.013-3.984 5.195-2.336-2.182-3.508-3.912-3.984-5.195-.5-1.346-.212-2.11.166-2.508.42-.44 1.132-.627 1.807-.482.653.14 1.148.562 1.274 1.222a.75.75 0 001.473 0z" fill="white"></path><path fill-rule="evenodd" clip-rule="evenodd" d="M17.1 11.277c-1.8 2.25-2.573 5.72-.854 10.58l8.86 18.668 8.862-18.668c1.718-4.86.946-8.33-.855-10.58-1.837-2.293-4.883-3.491-8.006-3.491s-6.17 1.198-8.006 3.492zm8.401 13.281c2.754-2.473 4.26-4.55 4.89-6.248.639-1.724.393-3.143-.488-4.065-.84-.88-2.114-1.149-3.208-.913a3.257 3.257 0 00-1.695.937 3.256 3.256 0 00-1.695-.938c-1.093-.235-2.368.034-3.208.914-.88.922-1.127 2.34-.487 4.065.63 1.698 2.135 3.775 4.889 6.248a.75.75 0 001.002 0z" fill="white"></path><path fill-rule="evenodd" clip-rule="evenodd" d="M25 50c13.807 0 25-11.193 25-25S38.807 0 25 0 0 11.193 0 25s11.193 25 25 25zm10.635-27.502c1.894-5.321 1.152-9.49-1.128-12.337C32.257 7.353 28.643 6 25.107 6c-3.537 0-7.15 1.353-9.4 4.161-2.28 2.847-3.023 7.016-1.129 12.337.01.029.022.057.035.084L24.3 42.99a.893.893 0 001.613 0L35.6 22.582a.92.92 0 00.035-.084z" fill="white"></path></svg>