<?xml version="1.0" encoding="UTF-8" standalone="no"?>
<!DOCTYPE svg PUBLIC "-//W3C//DTD SVG 1.1//EN" "http://www.w3.org/Graphics/SVG/1.1/DTD/svg11.dtd">
<svg version="1.1" xmlns="http://www.w3.org/2000/svg" xmlns:xlink="http://www.w3.org/1999/xlink" preserveAspectRatio="xMidYMid meet" viewBox="92.97832167832165 294.68426573426586 170.79999999999995 121.30000000000001" width="165" height="165"><defs><path d="M107.78 307.73C106.28 307.73 105.18 308.93 105.18 310.33C105.18 311.83 106.38 312.93 107.78 312.93C108.38 312.93 113.18 312.93 113.78 312.93C115.28 312.93 116.38 311.73 116.38 310.33C116.38 308.93 115.18 307.73 113.78 307.73C112.58 307.73 108.38 307.73 107.78 307.73Z" id="f1kvLRXcFP"></path><path d="M123.68 307.73C122.18 307.73 121.08 308.93 121.08 310.33C121.08 311.83 122.28 312.93 123.68 312.93C124.28 312.93 129.08 312.93 129.68 312.93C131.18 312.93 132.28 311.73 132.28 310.33C132.28 308.93 131.08 307.73 129.68 307.73C128.48 307.73 124.28 307.73 123.68 307.73Z" id="a3wR1KKzs"></path><path d="M139.58 307.73C138.08 307.73 136.98 308.93 136.98 310.33C136.98 311.83 138.18 312.93 139.58 312.93C140.18 312.93 144.98 312.93 145.58 312.93C147.08 312.93 148.18 311.73 148.18 310.33C148.18 308.93 146.98 307.73 145.58 307.73C144.38 307.73 140.18 307.73 139.58 307.73Z" id="ephB3shc7"></path><path d="M145.88 351.64L147.09 352.06L148.22 352.63L149.26 353.33L150.2 354.16L151.03 355.1L151.74 356.14L152.31 357.27L152.73 358.48L152.99 359.76L153.08 361.08L152.99 362.41L152.73 363.69L152.31 364.89L151.74 366.03L151.03 367.07L150.2 368.01L149.26 368.84L148.22 369.54L147.09 370.11L145.88 370.53L144.61 370.79L143.28 370.88L141.95 370.79L140.68 370.53L139.47 370.11L138.34 369.54L137.3 368.84L136.35 368.01L135.52 367.07L134.82 366.03L134.25 364.89L133.83 363.69L133.57 362.41L133.48 361.08L133.57 359.76L133.83 358.48L134.25 357.27L134.82 356.14L135.52 355.1L136.35 354.16L137.3 353.33L138.34 352.63L139.47 352.06L140.68 351.64L141.95 351.37L143.28 351.28L144.61 351.37L145.88 351.64ZM140.61 357.45L139.64 358.42L139.01 359.66L138.78 361.08L139.01 362.51L139.64 363.75L140.61 364.72L141.85 365.36L143.28 365.58L144.71 365.36L145.94 364.72L146.91 363.75L147.55 362.51L147.78 361.08L147.55 359.66L146.91 358.42L145.94 357.45L144.71 356.81L143.28 356.58L141.85 356.81L140.61 357.45Z" id="g1lUGFDjbb"></path><path d="M147.67 332.39L147.77 332.4L147.86 332.41L147.96 332.43L148.05 332.45L148.14 332.47L148.23 332.5L148.32 332.53L148.4 332.56L148.49 332.6L148.58 332.64L148.66 332.68L148.74 332.72L148.82 332.77L148.9 332.82L148.97 332.87L149.05 332.93L149.12 332.99L149.19 333.05L149.26 333.11L149.33 333.18L149.39 333.24L149.45 333.31L149.51 333.39L149.57 333.46L149.62 333.54L149.67 333.61L149.72 333.69L149.77 333.78L149.81 333.86L149.86 333.95L149.89 334.03L149.93 334.12L149.96 334.21L149.99 334.3L150.02 334.4L150.04 334.49L150.06 334.59L150.08 334.68L150.88 340.78L150.92 340.8L150.95 340.81L150.99 340.83L151.03 340.85L151.07 340.86L151.11 340.88L151.15 340.9L151.19 340.91L151.23 340.93L151.27 340.95L151.31 340.97L151.35 340.99L151.39 341L151.43 341.02L151.47 341.04L151.51 341.06L151.55 341.08L151.6 341.1L151.76 341.17L151.8 341.19L151.84 341.21L151.88 341.23L151.93 341.25L151.97 341.26L152.01 341.28L152.05 341.3L152.09 341.32L152.13 341.34L152.17 341.35L152.21 341.37L152.25 341.39L152.29 341.4L152.33 341.42L152.36 341.44L152.4 341.45L152.44 341.47L152.48 341.48L157.38 337.68L157.46 337.63L157.55 337.57L157.63 337.52L157.72 337.47L157.81 337.43L157.9 337.38L157.99 337.35L158.08 337.31L158.17 337.28L158.26 337.25L158.36 337.23L158.45 337.2L158.54 337.19L158.64 337.17L158.73 337.16L158.83 337.15L158.92 337.14L159.02 337.14L159.11 337.14L159.2 337.15L159.3 337.15L159.39 337.16L159.48 337.18L159.57 337.19L159.67 337.21L159.76 337.24L159.85 337.26L159.93 337.29L160.02 337.33L160.11 337.36L160.19 337.4L160.27 337.44L160.36 337.49L160.44 337.53L160.51 337.58L160.59 337.64L160.67 337.7L160.74 337.76L160.81 337.82L160.88 337.88L166.58 343.58L166.64 343.66L166.71 343.74L166.77 343.82L166.82 343.9L166.88 343.98L166.93 344.06L166.98 344.15L167.02 344.24L167.06 344.32L167.1 344.41L167.14 344.5L167.17 344.59L167.2 344.68L167.23 344.78L167.25 344.87L167.27 344.96L167.28 345.05L167.3 345.15L167.31 345.24L167.32 345.33L167.32 345.43L167.32 345.52L167.32 345.62L167.31 345.71L167.3 345.8L167.29 345.89L167.28 345.99L167.26 346.08L167.24 346.17L167.21 346.26L167.18 346.34L167.15 346.43L167.12 346.52L167.08 346.6L167.04 346.69L166.99 346.77L166.94 346.85L166.89 346.93L166.84 347.01L166.78 347.08L162.98 351.98L163 352.02L163.02 352.06L163.04 352.1L163.07 352.14L163.09 352.18L163.11 352.22L163.13 352.25L163.15 352.29L163.17 352.33L163.19 352.37L163.21 352.42L163.22 352.46L163.24 352.5L163.26 352.54L163.28 352.58L163.3 352.62L163.31 352.66L163.33 352.7L163.35 352.74L163.37 352.78L163.38 352.83L163.4 352.87L163.42 352.91L163.43 352.95L163.45 352.99L163.46 353.03L163.48 353.07L163.5 353.11L163.51 353.15L163.53 353.19L163.57 353.31L163.59 353.35L163.6 353.39L163.62 353.43L163.63 353.47L163.65 353.51L163.66 353.55L163.68 353.58L169.78 354.38L169.88 354.4L169.97 354.42L170.07 354.44L170.16 354.47L170.25 354.5L170.34 354.53L170.43 354.57L170.52 354.61L170.6 354.65L170.69 354.69L170.77 354.74L170.85 354.79L170.93 354.84L171 354.9L171.08 354.95L171.15 355.01L171.22 355.07L171.29 355.14L171.35 355.2L171.42 355.27L171.48 355.34L171.53 355.41L171.59 355.49L171.64 355.57L171.69 355.64L171.74 355.72L171.79 355.8L171.83 355.89L171.87 355.97L171.9 356.06L171.93 356.15L171.96 356.23L171.99 356.32L172.01 356.42L172.03 356.51L172.05 356.6L172.06 356.7L172.07 356.79L172.08 356.89L172.08 356.98L172.08 365.08L172.08 365.18L172.07 365.28L172.06 365.37L172.05 365.47L172.03 365.56L172.01 365.65L171.99 365.74L171.96 365.83L171.93 365.92L171.9 366.01L171.87 366.1L171.83 366.18L171.79 366.26L171.74 366.35L171.69 366.43L171.64 366.5L171.59 366.58L171.53 366.65L171.48 366.73L171.42 366.8L171.35 366.87L171.29 366.93L171.22 367L171.15 367.06L171.08 367.12L171 367.17L170.93 367.23L170.85 367.28L170.77 367.33L170.69 367.38L170.6 367.42L170.52 367.46L170.43 367.5L170.34 367.54L170.25 367.57L170.16 367.6L170.07 367.62L169.97 367.65L169.88 367.67L169.78 367.68L163.68 368.48L163.66 368.52L163.65 368.56L163.63 368.6L163.62 368.64L163.6 368.68L163.58 368.72L163.57 368.75L163.55 368.79L163.53 368.83L163.51 368.87L163.49 368.92L163.48 368.96L163.46 369L163.44 369.04L163.42 369.08L163.4 369.12L163.38 369.16L163.37 369.2L163.29 369.37L163.27 369.41L163.25 369.45L163.23 369.49L163.22 369.53L163.2 369.57L163.18 369.61L163.16 369.65L163.14 369.69L163.13 369.73L163.11 369.77L163.09 369.81L163.07 369.85L163.06 369.89L163.04 369.93L163.02 369.97L163.01 370.01L162.99 370.05L162.98 370.08L166.78 374.98L166.84 375.07L166.89 375.15L166.94 375.24L166.99 375.33L167.04 375.41L167.08 375.5L167.12 375.59L167.15 375.68L167.18 375.78L167.21 375.87L167.24 375.96L167.26 376.06L167.28 376.15L167.29 376.24L167.3 376.34L167.31 376.43L167.32 376.53L167.32 376.62L167.32 376.72L167.32 376.81L167.31 376.9L167.3 377L167.28 377.09L167.27 377.18L167.25 377.27L167.23 377.36L167.2 377.45L167.17 377.54L167.14 377.63L167.1 377.71L167.06 377.8L167.02 377.88L166.98 377.96L166.93 378.04L166.88 378.12L166.82 378.2L166.77 378.27L166.71 378.34L166.64 378.42L166.58 378.48L160.88 384.18L160.8 384.25L160.72 384.31L160.65 384.37L160.56 384.43L160.48 384.48L160.4 384.53L160.31 384.58L160.23 384.63L160.14 384.67L160.05 384.71L159.96 384.74L159.87 384.78L159.78 384.8L159.69 384.83L159.6 384.85L159.5 384.87L159.41 384.89L159.32 384.9L159.22 384.91L159.13 384.92L159.03 384.93L158.94 384.93L158.85 384.92L158.75 384.92L158.66 384.91L158.57 384.9L158.48 384.88L158.39 384.86L158.3 384.84L158.21 384.82L158.12 384.79L158.03 384.76L157.94 384.72L157.86 384.68L157.77 384.64L157.69 384.6L157.61 384.55L157.53 384.5L157.45 384.44L157.38 384.38L152.48 380.58L152.44 380.61L152.4 380.63L152.36 380.65L152.33 380.67L152.29 380.69L152.25 380.71L152.21 380.73L152.17 380.75L152.13 380.77L152.09 380.79L152.05 380.81L152.01 380.83L151.97 380.85L151.93 380.87L151.88 380.88L151.84 380.9L151.8 380.92L151.76 380.94L151.72 380.95L151.68 380.97L151.64 380.99L151.6 381.01L151.55 381.02L151.51 381.04L151.47 381.05L151.43 381.07L151.39 381.09L151.35 381.1L151.31 381.12L151.27 381.13L151.15 381.18L151.11 381.19L151.07 381.21L151.03 381.22L150.99 381.24L150.95 381.25L150.92 381.27L150.88 381.28L150.08 387.38L150.06 387.48L150.04 387.58L150.02 387.67L149.99 387.76L149.96 387.86L149.93 387.95L149.89 388.04L149.86 388.12L149.81 388.21L149.77 388.29L149.72 388.37L149.67 388.45L149.62 388.53L149.57 388.61L149.51 388.68L149.45 388.76L149.39 388.83L149.33 388.89L149.26 388.96L149.19 389.02L149.12 389.08L149.05 389.14L148.97 389.2L148.9 389.25L148.82 389.3L148.74 389.35L148.66 389.39L148.58 389.43L148.49 389.47L148.4 389.51L148.32 389.54L148.23 389.57L148.14 389.6L148.05 389.62L147.96 389.64L147.86 389.65L147.77 389.67L147.67 389.68L147.58 389.68L147.48 389.68L139.38 389.68L139.28 389.68L139.18 389.68L139.09 389.67L139 389.65L138.9 389.64L138.81 389.62L138.72 389.6L138.63 389.57L138.54 389.54L138.45 389.51L138.37 389.47L138.28 389.43L138.2 389.39L138.12 389.35L138.04 389.3L137.96 389.25L137.88 389.2L137.81 389.14L137.74 389.08L137.67 389.02L137.6 388.96L137.53 388.89L137.47 388.83L137.41 388.76L137.35 388.68L137.29 388.61L137.23 388.53L137.18 388.45L137.13 388.37L137.09 388.29L137.04 388.21L137 388.12L136.96 388.04L136.93 387.95L136.89 387.86L136.86 387.76L136.84 387.67L136.81 387.58L136.79 387.48L136.78 387.38L135.98 381.28L135.94 381.27L135.9 381.25L135.86 381.24L135.83 381.22L135.79 381.2L135.75 381.19L135.71 381.17L135.67 381.15L135.63 381.14L135.59 381.12L135.55 381.1L135.51 381.08L135.47 381.06L135.43 381.05L135.38 381.03L135.34 381.01L135.3 380.99L135.26 380.97L135.1 380.9L135.05 380.88L135.01 380.86L134.97 380.84L134.93 380.82L134.89 380.8L134.85 380.79L134.81 380.77L134.77 380.75L134.73 380.73L134.69 380.71L134.65 380.7L134.61 380.68L134.57 380.66L134.53 380.65L134.49 380.63L134.45 380.61L134.42 380.6L134.38 380.58L129.48 384.38L129.4 384.44L129.31 384.5L129.22 384.55L129.14 384.6L129.05 384.64L128.96 384.68L128.87 384.72L128.78 384.76L128.69 384.79L128.59 384.82L128.5 384.84L128.41 384.86L128.31 384.88L128.22 384.9L128.12 384.91L128.03 384.92L127.94 384.92L127.84 384.93L127.75 384.93L127.65 384.92L127.56 384.91L127.47 384.9L127.37 384.89L127.28 384.87L127.19 384.85L127.1 384.83L127.01 384.8L126.92 384.78L126.84 384.74L126.75 384.71L126.67 384.67L126.58 384.63L126.5 384.58L126.42 384.53L126.34 384.48L126.27 384.43L126.19 384.37L126.12 384.31L126.05 384.25L125.98 384.18L120.28 378.48L120.21 378.41L120.15 378.33L120.09 378.25L120.03 378.17L119.98 378.09L119.93 378L119.88 377.92L119.84 377.83L119.79 377.74L119.75 377.66L119.72 377.57L119.69 377.48L119.66 377.39L119.63 377.29L119.61 377.2L119.59 377.11L119.57 377.02L119.56 376.92L119.55 376.83L119.54 376.73L119.54 376.64L119.54 376.55L119.54 376.45L119.54 376.36L119.55 376.27L119.56 376.18L119.58 376.08L119.6 375.99L119.62 375.9L119.65 375.81L119.67 375.72L119.71 375.64L119.74 375.55L119.78 375.46L119.82 375.38L119.87 375.3L119.91 375.22L119.97 375.14L120.02 375.06L120.08 374.98L123.88 370.08L123.86 370.05L123.83 370.01L123.81 369.97L123.79 369.93L123.77 369.89L123.75 369.85L123.73 369.81L123.71 369.77L123.69 369.73L123.67 369.69L123.65 369.65L123.63 369.61L123.61 369.57L123.6 369.53L123.58 369.49L123.56 369.45L123.54 369.41L123.52 369.37L123.51 369.33L123.49 369.28L123.47 369.24L123.46 369.2L123.44 369.16L123.42 369.12L123.41 369.08L123.39 369.04L123.38 369L123.36 368.96L123.35 368.92L123.33 368.87L123.28 368.75L123.27 368.72L123.25 368.68L123.24 368.64L123.22 368.6L123.21 368.56L123.19 368.52L123.18 368.48L117.08 367.68L116.98 367.67L116.89 367.65L116.79 367.62L116.7 367.6L116.61 367.57L116.52 367.54L116.43 367.5L116.34 367.46L116.25 367.42L116.17 367.38L116.09 367.33L116.01 367.28L115.93 367.23L115.85 367.17L115.78 367.12L115.71 367.06L115.64 367L115.57 366.93L115.5 366.87L115.44 366.8L115.38 366.73L115.32 366.65L115.27 366.58L115.21 366.5L115.16 366.43L115.12 366.35L115.07 366.26L115.03 366.18L114.99 366.1L114.95 366.01L114.92 365.92L114.89 365.83L114.87 365.74L114.84 365.65L114.82 365.56L114.81 365.47L114.79 365.37L114.79 365.28L114.78 365.18L114.78 365.08L114.78 356.98L114.78 356.89L114.79 356.79L114.79 356.7L114.81 356.6L114.82 356.51L114.84 356.42L114.87 356.32L114.89 356.23L114.92 356.15L114.95 356.06L114.99 355.97L115.03 355.89L115.07 355.8L115.12 355.72L115.16 355.64L115.21 355.57L115.27 355.49L115.32 355.41L115.38 355.34L115.44 355.27L115.5 355.2L115.57 355.14L115.64 355.07L115.71 355.01L115.78 354.95L115.85 354.9L115.93 354.84L116.01 354.79L116.09 354.74L116.17 354.69L116.25 354.65L116.34 354.61L116.43 354.57L116.52 354.53L116.61 354.5L116.7 354.47L116.79 354.44L116.89 354.42L116.98 354.4L117.08 354.38L123.18 353.58L123.19 353.55L123.21 353.51L123.22 353.47L123.24 353.43L123.26 353.39L123.27 353.35L123.29 353.31L123.31 353.27L123.33 353.23L123.34 353.19L123.36 353.15L123.38 353.11L123.4 353.07L123.42 353.03L123.43 352.99L123.45 352.95L123.47 352.91L123.49 352.87L123.57 352.7L123.58 352.66L123.6 352.62L123.62 352.58L123.64 352.54L123.66 352.5L123.68 352.46L123.69 352.42L123.71 352.37L123.73 352.33L123.75 352.29L123.77 352.25L123.78 352.22L123.8 352.18L123.82 352.14L123.83 352.1L123.85 352.06L123.86 352.02L123.88 351.98L120.08 347.08L120.02 347L119.97 346.92L119.91 346.83L119.87 346.74L119.82 346.65L119.78 346.57L119.74 346.48L119.71 346.38L119.67 346.29L119.65 346.2L119.62 346.11L119.6 346.01L119.58 345.92L119.56 345.83L119.55 345.73L119.54 345.64L119.54 345.54L119.54 345.45L119.54 345.35L119.54 345.26L119.55 345.17L119.56 345.07L119.57 344.98L119.59 344.89L119.61 344.8L119.63 344.71L119.66 344.62L119.69 344.53L119.72 344.44L119.75 344.36L119.79 344.27L119.84 344.19L119.88 344.11L119.93 344.03L119.98 343.95L120.03 343.87L120.09 343.8L120.15 343.72L120.21 343.65L120.28 343.58L125.98 337.88L126.05 337.82L126.13 337.76L126.21 337.7L126.29 337.64L126.37 337.58L126.46 337.53L126.54 337.49L126.63 337.44L126.72 337.4L126.81 337.36L126.9 337.33L126.99 337.29L127.08 337.26L127.17 337.24L127.26 337.21L127.35 337.19L127.45 337.18L127.54 337.16L127.63 337.15L127.73 337.15L127.82 337.14L127.92 337.14L128.01 337.14L128.1 337.15L128.2 337.16L128.29 337.17L128.38 337.19L128.47 337.2L128.56 337.23L128.65 337.25L128.74 337.28L128.83 337.31L128.91 337.35L129 337.38L129.08 337.43L129.16 337.47L129.25 337.52L129.32 337.57L129.4 337.63L129.48 337.68L134.38 341.48L134.42 341.46L134.45 341.44L134.49 341.42L134.53 341.4L134.57 341.38L134.61 341.36L134.65 341.34L134.69 341.32L134.73 341.3L134.77 341.28L134.81 341.26L134.85 341.24L134.89 341.22L134.93 341.2L134.97 341.18L135.01 341.17L135.05 341.15L135.1 341.13L135.14 341.11L135.18 341.1L135.22 341.08L135.26 341.06L135.3 341.05L135.34 341.03L135.38 341.01L135.43 341L135.47 340.98L135.51 340.97L135.55 340.95L135.59 340.94L135.71 340.89L135.75 340.87L135.79 340.86L135.83 340.84L135.86 340.83L135.9 340.81L135.94 340.8L135.98 340.78L136.78 334.68L136.79 334.59L136.81 334.49L136.84 334.4L136.86 334.3L136.89 334.21L136.93 334.12L136.96 334.03L137 333.95L137.04 333.86L137.09 333.78L137.13 333.69L137.18 333.61L137.23 333.54L137.29 333.46L137.35 333.39L137.41 333.31L137.47 333.24L137.53 333.18L137.6 333.11L137.67 333.05L137.74 332.99L137.81 332.93L137.88 332.87L137.96 332.82L138.04 332.77L138.12 332.72L138.2 332.68L138.28 332.64L138.37 332.6L138.45 332.56L138.54 332.53L138.63 332.5L138.72 332.47L138.81 332.45L138.9 332.43L139 332.41L139.09 332.4L139.18 332.39L139.28 332.39L139.38 332.38L147.48 332.38L147.58 332.39L147.67 332.39ZM140.88 343.08L140.87 343.17L140.86 343.25L140.84 343.33L140.83 343.41L140.81 343.49L140.78 343.57L140.76 343.65L140.73 343.72L140.7 343.8L140.67 343.87L140.64 343.94L140.6 344.01L140.56 344.08L140.52 344.14L140.48 344.21L140.44 344.27L140.39 344.34L140.34 344.4L140.29 344.46L140.24 344.51L140.19 344.57L140.13 344.62L140.07 344.68L140.01 344.73L139.95 344.78L139.89 344.83L139.83 344.87L139.77 344.92L139.7 344.96L139.63 345L139.56 345.04L139.49 345.08L139.42 345.11L139.35 345.14L139.28 345.18L139.21 345.21L139.13 345.23L139.05 345.26L138.98 345.28L138.88 345.31L138.78 345.33L138.68 345.36L138.58 345.38L138.48 345.41L138.39 345.44L138.29 345.47L138.19 345.49L138.09 345.52L138 345.55L137.9 345.59L137.8 345.62L137.71 345.65L137.61 345.68L137.52 345.72L137.42 345.75L137.33 345.79L137.23 345.83L137.14 345.87L137.04 345.9L136.95 345.94L136.86 345.98L136.76 346.02L136.67 346.07L136.58 346.11L136.48 346.15L136.39 346.19L136.3 346.24L136.2 346.29L136.11 346.33L136.02 346.38L135.93 346.43L135.83 346.48L135.74 346.52L135.65 346.58L135.56 346.63L135.46 346.68L135.37 346.73L135.28 346.78L135.21 346.82L135.14 346.86L135.07 346.89L134.99 346.92L134.92 346.95L134.84 346.97L134.77 347L134.69 347.02L134.62 347.04L134.54 347.05L134.46 347.07L134.38 347.08L134.3 347.09L134.23 347.1L134.15 347.1L134.07 347.1L133.99 347.1L133.91 347.1L133.83 347.1L133.75 347.09L133.67 347.09L133.59 347.08L133.52 347.06L133.44 347.05L133.36 347.03L133.29 347.01L133.21 346.99L133.14 346.97L133.06 346.95L132.99 346.92L132.92 346.89L132.84 346.86L132.77 346.83L132.7 346.79L132.64 346.75L132.57 346.71L132.5 346.67L132.44 346.63L132.38 346.58L127.98 343.18L125.48 345.68L128.88 350.08L128.92 350.15L128.97 350.21L129.01 350.28L129.05 350.34L129.08 350.41L129.12 350.48L129.15 350.55L129.18 350.62L129.21 350.69L129.24 350.77L129.26 350.84L129.29 350.92L129.31 350.99L129.33 351.07L129.34 351.15L129.36 351.22L129.37 351.3L129.38 351.38L129.39 351.46L129.39 351.54L129.4 351.62L129.4 351.69L129.4 351.77L129.39 351.85L129.39 351.93L129.38 352.01L129.37 352.09L129.36 352.17L129.35 352.24L129.33 352.32L129.31 352.4L129.29 352.47L129.27 352.55L129.24 352.62L129.21 352.7L129.18 352.77L129.15 352.84L129.12 352.91L129.08 352.98L129.03 353.08L128.99 353.17L128.94 353.26L128.9 353.35L128.85 353.45L128.81 353.54L128.76 353.63L128.72 353.72L128.68 353.82L128.64 353.91L128.59 354L128.55 354.09L128.51 354.19L128.47 354.28L128.43 354.37L128.39 354.47L128.35 354.56L128.31 354.66L128.27 354.75L128.23 354.84L128.2 354.94L128.16 355.03L128.12 355.13L128.08 355.22L128.05 355.32L128.01 355.41L127.98 355.51L127.94 355.61L127.91 355.7L127.87 355.8L127.84 355.9L127.8 355.99L127.77 356.09L127.74 356.19L127.7 356.29L127.67 356.39L127.64 356.49L127.61 356.58L127.58 356.68L127.55 356.76L127.53 356.84L127.5 356.91L127.47 356.99L127.43 357.06L127.4 357.13L127.36 357.2L127.32 357.27L127.28 357.34L127.24 357.41L127.19 357.47L127.15 357.54L127.1 357.6L127.05 357.66L126.99 357.72L126.94 357.78L126.89 357.84L126.83 357.89L126.77 357.95L126.71 358L126.65 358.05L126.59 358.1L126.52 358.14L126.46 358.19L126.39 358.23L126.33 358.27L126.26 358.31L126.19 358.34L126.12 358.38L126.05 358.41L125.98 358.44L125.9 358.47L125.83 358.49L125.76 358.51L125.68 358.53L125.61 358.55L125.53 358.56L125.46 358.58L125.38 358.58L119.88 359.28L119.88 362.78L125.38 363.48L125.46 363.49L125.55 363.51L125.63 363.52L125.71 363.54L125.79 363.56L125.86 363.58L125.94 363.6L126.02 363.63L126.09 363.66L126.16 363.69L126.23 363.72L126.3 363.76L126.37 363.8L126.44 363.84L126.5 363.88L126.57 363.93L126.63 363.97L126.69 364.02L126.75 364.07L126.81 364.12L126.86 364.18L126.92 364.23L126.97 364.29L127.02 364.35L127.07 364.41L127.12 364.47L127.17 364.53L127.21 364.6L127.25 364.66L127.29 364.73L127.33 364.8L127.37 364.87L127.41 364.94L127.44 365.01L127.47 365.08L127.5 365.16L127.53 365.23L127.55 365.31L127.58 365.38L127.6 365.48L127.63 365.58L127.65 365.68L127.68 365.78L127.7 365.88L127.73 365.98L127.76 366.08L127.79 366.17L127.82 366.27L127.85 366.37L127.88 366.46L127.91 366.56L127.94 366.65L127.98 366.75L128.01 366.85L128.05 366.94L128.08 367.04L128.12 367.13L128.16 367.22L128.2 367.32L128.24 367.41L128.28 367.51L128.32 367.6L128.36 367.69L128.4 367.79L128.44 367.88L128.49 367.97L128.53 368.07L128.58 368.16L128.63 368.25L128.67 368.34L128.72 368.44L128.77 368.53L128.82 368.62L128.87 368.71L128.92 368.81L128.97 368.9L129.02 368.99L129.08 369.08L129.12 369.15L129.15 369.22L129.18 369.3L129.21 369.37L129.24 369.44L129.27 369.52L129.29 369.59L129.31 369.67L129.33 369.75L129.35 369.82L129.36 369.9L129.37 369.98L129.38 370.06L129.39 370.14L129.39 370.22L129.4 370.3L129.4 370.37L129.4 370.45L129.39 370.53L129.39 370.61L129.38 370.69L129.37 370.77L129.36 370.85L129.34 370.92L129.33 371L129.31 371.08L129.29 371.15L129.26 371.23L129.24 371.3L129.21 371.38L129.18 371.45L129.15 371.52L129.12 371.59L129.08 371.66L129.05 371.73L129.01 371.79L128.97 371.86L128.92 371.92L128.88 371.98L125.48 376.38L127.98 378.88L132.38 375.48L132.44 375.44L132.5 375.4L132.57 375.35L132.64 375.32L132.7 375.28L132.77 375.24L132.84 375.21L132.92 375.18L132.99 375.15L133.06 375.12L133.14 375.1L133.21 375.08L133.29 375.05L133.36 375.04L133.44 375.02L133.52 375.01L133.59 374.99L133.67 374.98L133.75 374.97L133.83 374.97L133.91 374.97L133.99 374.96L134.07 374.96L134.15 374.97L134.23 374.97L134.3 374.98L134.38 374.99L134.46 375L134.54 375.02L134.62 375.03L134.69 375.05L134.77 375.07L134.84 375.1L134.92 375.12L134.99 375.15L135.07 375.18L135.14 375.21L135.21 375.25L135.28 375.28L135.37 375.33L135.46 375.38L135.56 375.42L135.65 375.47L135.74 375.51L135.83 375.55L135.93 375.6L136.02 375.64L136.11 375.68L136.2 375.73L136.3 375.77L136.39 375.81L136.48 375.85L136.58 375.89L136.67 375.93L136.76 375.97L136.86 376.01L136.95 376.05L137.04 376.09L137.14 376.13L137.23 376.17L137.33 376.2L137.42 376.24L137.52 376.28L137.61 376.31L137.71 376.35L137.8 376.39L137.9 376.42L138 376.46L138.09 376.49L138.19 376.53L138.29 376.56L138.39 376.59L138.48 376.63L138.58 376.66L138.68 376.69L138.78 376.72L138.88 376.75L138.98 376.78L139.05 376.81L139.13 376.84L139.21 376.86L139.28 376.89L139.35 376.93L139.42 376.96L139.49 377L139.56 377.04L139.63 377.08L139.7 377.12L139.77 377.17L139.83 377.22L139.89 377.27L139.95 377.32L140.01 377.37L140.07 377.42L140.13 377.48L140.19 377.53L140.24 377.59L140.29 377.65L140.34 377.71L140.39 377.77L140.44 377.84L140.48 377.9L140.52 377.97L140.56 378.04L140.6 378.1L140.64 378.17L140.67 378.24L140.7 378.31L140.73 378.39L140.76 378.46L140.78 378.53L140.81 378.61L140.83 378.68L140.84 378.76L140.86 378.83L140.87 378.91L140.88 378.98L141.58 384.48L145.08 384.48L145.78 378.98L145.79 378.9L145.8 378.82L145.81 378.74L145.83 378.66L145.85 378.58L145.87 378.5L145.9 378.42L145.92 378.35L145.95 378.27L145.98 378.2L146.02 378.13L146.05 378.06L146.09 377.99L146.13 377.92L146.18 377.86L146.22 377.8L146.27 377.73L146.31 377.67L146.37 377.61L146.42 377.56L146.47 377.5L146.53 377.45L146.58 377.39L146.64 377.34L146.7 377.29L146.76 377.24L146.83 377.2L146.89 377.15L146.96 377.11L147.02 377.07L147.09 377.03L147.16 376.99L147.23 376.96L147.3 376.92L147.38 376.89L147.45 376.86L147.53 376.83L147.6 376.81L147.68 376.78L147.78 376.76L147.88 376.74L147.98 376.71L148.08 376.69L148.17 376.66L148.27 376.63L148.37 376.6L148.47 376.57L148.56 376.54L148.66 376.51L148.76 376.48L148.85 376.45L148.95 376.42L149.04 376.38L149.14 376.35L149.23 376.31L149.33 376.28L149.42 376.24L149.52 376.2L149.61 376.16L149.71 376.13L149.8 376.09L149.89 376.04L149.99 376L150.08 375.96L150.17 375.92L150.27 375.87L150.36 375.83L150.45 375.78L150.55 375.74L150.64 375.69L150.73 375.64L150.82 375.59L150.92 375.54L151.01 375.49L151.1 375.44L151.19 375.39L151.29 375.34L151.38 375.28L151.45 375.25L151.52 375.21L151.59 375.18L151.66 375.15L151.74 375.12L151.81 375.1L151.89 375.07L151.96 375.05L152.04 375.03L152.12 375.02L152.2 375L152.27 374.99L152.35 374.98L152.43 374.97L152.51 374.97L152.59 374.96L152.67 374.96L152.75 374.97L152.83 374.97L152.91 374.97L152.98 374.98L153.06 374.99L153.14 375.01L153.22 375.02L153.29 375.04L153.37 375.05L153.45 375.08L153.52 375.1L153.6 375.12L153.67 375.15L153.74 375.18L153.81 375.21L153.88 375.24L153.95 375.28L154.02 375.32L154.09 375.35L154.15 375.4L154.22 375.44L154.28 375.48L158.68 378.88L161.18 376.38L157.78 371.98L157.73 371.92L157.69 371.86L157.65 371.79L157.61 371.73L157.57 371.66L157.54 371.59L157.5 371.52L157.47 371.45L157.44 371.38L157.42 371.3L157.39 371.23L157.37 371.15L157.35 371.08L157.33 371L157.31 370.92L157.3 370.85L157.29 370.77L157.28 370.69L157.27 370.61L157.26 370.53L157.26 370.45L157.26 370.37L157.26 370.3L157.26 370.22L157.27 370.14L157.27 370.06L157.28 369.98L157.3 369.9L157.31 369.82L157.33 369.75L157.35 369.67L157.37 369.59L157.39 369.52L157.42 369.44L157.44 369.37L157.47 369.3L157.51 369.22L157.54 369.15L157.58 369.08L157.62 368.99L157.67 368.9L157.72 368.81L157.76 368.71L157.8 368.62L157.85 368.53L157.89 368.44L157.93 368.34L157.98 368.25L158.02 368.16L158.06 368.07L158.1 367.97L158.14 367.88L158.19 367.79L158.23 367.69L158.27 367.6L158.31 367.51L158.35 367.41L158.38 367.32L158.42 367.22L158.46 367.13L158.5 367.04L158.54 366.94L158.57 366.85L158.61 366.75L158.64 366.65L158.68 366.56L158.72 366.46L158.75 366.37L158.79 366.27L158.82 366.17L158.85 366.08L158.89 365.98L158.92 365.88L158.95 365.78L158.98 365.68L159.02 365.58L159.05 365.48L159.08 365.38L159.1 365.31L159.13 365.23L159.16 365.16L159.19 365.08L159.22 365.01L159.26 364.94L159.29 364.87L159.33 364.8L159.38 364.73L159.42 364.66L159.46 364.6L159.51 364.53L159.56 364.47L159.61 364.41L159.66 364.35L159.72 364.29L159.77 364.23L159.83 364.18L159.89 364.12L159.95 364.07L160.01 364.02L160.07 363.97L160.13 363.93L160.2 363.88L160.26 363.84L160.33 363.8L160.4 363.76L160.47 363.72L160.54 363.69L160.61 363.66L160.68 363.63L160.75 363.6L160.83 363.58L160.9 363.56L160.97 363.54L161.05 363.52L161.13 363.51L161.2 363.49L161.28 363.48L166.78 362.78L166.78 359.28L161.28 358.58L161.19 358.58L161.11 358.56L161.03 358.55L160.95 358.53L160.87 358.51L160.79 358.49L160.72 358.47L160.64 358.44L160.57 358.41L160.49 358.38L160.42 358.34L160.35 358.31L160.29 358.27L160.22 358.23L160.15 358.19L160.09 358.14L160.03 358.1L159.97 358.05L159.91 358L159.85 357.95L159.79 357.89L159.74 357.84L159.69 357.78L159.63 357.72L159.59 357.66L159.54 357.6L159.49 357.54L159.45 357.47L159.4 357.41L159.36 357.34L159.32 357.27L159.29 357.2L159.25 357.13L159.22 357.06L159.19 356.99L159.16 356.91L159.13 356.84L159.1 356.76L159.08 356.68L159.05 356.58L159.03 356.49L159.01 356.39L158.98 356.29L158.95 356.19L158.93 356.09L158.9 355.99L158.87 355.9L158.84 355.8L158.81 355.7L158.78 355.61L158.74 355.51L158.71 355.41L158.68 355.32L158.64 355.22L158.61 355.13L158.57 355.03L158.54 354.94L158.5 354.84L158.46 354.75L158.42 354.66L158.38 354.56L158.34 354.47L158.3 354.37L158.25 354.28L158.21 354.19L158.17 354.09L158.12 354L158.08 353.91L158.03 353.82L157.98 353.72L157.94 353.63L157.89 353.54L157.84 353.45L157.79 353.35L157.74 353.26L157.68 353.17L157.63 353.08L157.58 352.98L157.54 352.91L157.51 352.84L157.47 352.77L157.44 352.7L157.42 352.62L157.39 352.55L157.37 352.47L157.35 352.4L157.33 352.32L157.31 352.24L157.3 352.17L157.28 352.09L157.27 352.01L157.27 351.93L157.26 351.85L157.26 351.77L157.26 351.69L157.26 351.62L157.26 351.54L157.27 351.46L157.28 351.38L157.29 351.3L157.3 351.22L157.31 351.15L157.33 351.07L157.35 350.99L157.37 350.92L157.39 350.84L157.42 350.77L157.44 350.69L157.47 350.62L157.5 350.55L157.54 350.48L157.57 350.41L157.61 350.34L157.65 350.28L157.69 350.21L157.73 350.15L157.78 350.08L161.18 345.68L158.68 343.18L154.28 346.58L154.22 346.63L154.15 346.67L154.09 346.71L154.02 346.75L153.95 346.79L153.88 346.83L153.81 346.86L153.74 346.89L153.67 346.92L153.6 346.95L153.52 346.97L153.45 346.99L153.37 347.01L153.29 347.03L153.22 347.05L153.14 347.06L153.06 347.08L152.98 347.09L152.91 347.09L152.83 347.1L152.75 347.1L152.67 347.1L152.59 347.1L152.51 347.1L152.43 347.1L152.35 347.09L152.27 347.08L152.2 347.07L152.12 347.05L152.04 347.04L151.96 347.02L151.89 347L151.81 346.97L151.74 346.95L151.66 346.92L151.59 346.89L151.52 346.86L151.45 346.82L151.38 346.78L151.29 346.74L151.19 346.69L151.1 346.65L151.01 346.6L150.92 346.56L150.82 346.51L150.73 346.47L150.64 346.43L150.55 346.38L150.45 346.34L150.36 346.3L150.27 346.26L150.17 346.22L150.08 346.18L149.99 346.14L149.89 346.1L149.8 346.06L149.71 346.02L149.61 345.98L149.52 345.94L149.42 345.9L149.33 345.86L149.23 345.83L149.14 345.79L149.04 345.75L148.95 345.72L148.85 345.68L148.76 345.65L148.66 345.61L148.56 345.58L148.47 345.54L148.37 345.51L148.27 345.48L148.17 345.44L148.08 345.41L147.98 345.38L147.88 345.35L147.78 345.32L147.68 345.28L147.6 345.26L147.53 345.23L147.45 345.2L147.38 345.17L147.3 345.14L147.23 345.11L147.16 345.07L147.09 345.03L147.02 344.99L146.96 344.94L146.89 344.9L146.83 344.85L146.76 344.8L146.7 344.75L146.64 344.7L146.58 344.65L146.53 344.59L146.47 344.53L146.42 344.48L146.37 344.42L146.31 344.36L146.27 344.29L146.22 344.23L146.18 344.17L146.13 344.1L146.09 344.03L146.05 343.96L146.02 343.9L145.98 343.83L145.95 343.75L145.92 343.68L145.9 343.61L145.87 343.54L145.85 343.46L145.83 343.39L145.81 343.31L145.8 343.24L145.79 343.16L145.78 343.08L145.08 337.58L141.58 337.58L140.88 343.08Z" id="b2l20v2DIr"></path><path d="M258.4 295.69L258.51 295.7L258.62 295.72L258.72 295.74L258.82 295.76L258.93 295.79L259.02 295.82L259.12 295.86L259.22 295.89L259.31 295.94L259.4 295.98L259.49 296.03L259.58 296.08L259.66 296.14L259.74 296.2L259.82 296.26L259.9 296.32L259.97 296.39L260.04 296.46L260.11 296.53L260.17 296.61L260.24 296.68L260.3 296.76L260.35 296.85L260.4 296.93L260.45 297.02L260.5 297.11L260.54 297.2L260.58 297.29L260.62 297.38L260.65 297.48L260.68 297.57L260.71 297.67L260.73 297.77L260.75 297.87L260.76 297.97L260.77 298.08L260.78 298.18L260.78 298.28L260.78 403.18L260.78 403.29L260.77 403.39L260.76 403.5L260.75 403.6L260.73 403.7L260.71 403.8L260.68 403.9L260.65 403.99L260.62 404.09L260.58 404.18L260.54 404.27L260.5 404.36L260.45 404.45L260.4 404.54L260.35 404.62L260.3 404.7L260.24 404.78L260.17 404.86L260.11 404.94L260.04 405.01L259.97 405.08L259.9 405.15L259.82 405.21L259.74 405.27L259.66 405.33L259.58 405.39L259.49 405.44L259.4 405.49L259.31 405.53L259.22 405.57L259.12 405.61L259.02 405.65L258.93 405.68L258.82 405.71L258.72 405.73L258.62 405.75L258.51 405.76L258.4 405.78L258.29 405.78L258.18 405.78L237.18 405.78L237.01 405.95L236.71 406.25L236.7 406.26L236.68 406.28L236.6 406.35L236.52 406.41L236.45 406.47L236.36 406.53L236.28 406.58L236.2 406.63L236.11 406.68L236.03 406.73L235.94 406.77L235.85 406.81L235.76 406.84L235.67 406.88L235.58 406.9L235.49 406.93L235.4 406.95L235.3 406.97L235.21 406.99L235.12 407L235.02 407.01L234.93 407.02L234.83 407.03L234.74 407.03L234.65 407.02L234.55 407.02L234.46 407.01L234.37 407L234.28 406.98L234.19 406.96L234.1 406.94L234.01 406.92L233.92 406.89L233.83 406.86L233.74 406.82L233.66 406.78L233.57 406.74L233.49 406.7L233.41 406.65L233.33 406.6L233.25 406.54L233.18 406.48L232.28 405.78L223.68 405.78L222.98 410.68L222.96 410.78L222.94 410.88L222.92 410.97L222.89 411.06L222.86 411.16L222.83 411.25L222.79 411.34L222.76 411.42L222.71 411.51L222.67 411.59L222.62 411.67L222.57 411.75L222.52 411.83L222.47 411.91L222.41 411.98L222.35 412.06L222.29 412.13L222.23 412.19L222.16 412.26L222.09 412.32L222.02 412.38L221.95 412.44L221.87 412.5L221.8 412.55L221.72 412.6L221.64 412.65L221.56 412.69L221.48 412.73L221.39 412.77L221.3 412.81L221.22 412.84L221.13 412.87L221.04 412.9L220.95 412.92L220.86 412.94L220.76 412.95L220.67 412.97L220.57 412.98L220.48 412.98L220.38 412.98L210.38 412.98L210.28 412.98L210.18 412.98L210.09 412.97L210 412.95L209.9 412.94L209.81 412.92L209.72 412.9L209.63 412.87L209.54 412.84L209.45 412.81L209.37 412.77L209.28 412.73L209.2 412.69L209.12 412.65L209.04 412.6L208.96 412.55L208.88 412.5L208.81 412.44L208.74 412.38L208.67 412.32L208.6 412.26L208.53 412.19L208.47 412.13L208.41 412.06L208.35 411.98L208.29 411.91L208.23 411.83L208.18 411.75L208.13 411.67L208.09 411.59L208.04 411.51L208 411.42L207.96 411.34L207.93 411.25L207.89 411.16L207.86 411.06L207.84 410.97L207.81 410.88L207.79 410.78L207.78 410.68L207.08 405.78L198.48 405.78L197.58 406.48L197.5 406.54L197.41 406.6L197.32 406.65L197.24 406.7L197.15 406.74L197.06 406.78L196.97 406.82L196.88 406.86L196.79 406.89L196.69 406.92L196.6 406.94L196.51 406.96L196.41 406.98L196.32 407L196.22 407.01L196.13 407.02L196.04 407.02L195.94 407.03L195.85 407.03L195.75 407.02L195.66 407.01L195.57 407L195.47 406.99L195.38 406.97L195.29 406.95L195.2 406.93L195.11 406.9L195.02 406.88L194.94 406.84L194.85 406.81L194.77 406.77L194.68 406.73L194.6 406.68L194.52 406.63L194.44 406.58L194.37 406.53L194.29 406.47L194.22 406.41L194.15 406.35L194.08 406.28L194.05 406.26L193.74 405.95L193.58 405.78L96.58 405.78L96.47 405.78L96.37 405.78L96.27 405.77L96.17 405.75L96.06 405.73L95.97 405.71L95.87 405.69L95.77 405.66L95.68 405.63L95.58 405.59L95.49 405.55L95.4 405.51L95.31 405.46L95.22 405.41L95.14 405.36L95.06 405.3L94.98 405.24L94.9 405.18L94.83 405.11L94.75 405.05L94.68 404.98L94.62 404.9L94.55 404.83L94.49 404.75L94.43 404.67L94.38 404.58L94.32 404.5L94.28 404.41L94.23 404.32L94.19 404.22L94.15 404.13L94.11 404.03L94.08 403.93L94.06 403.83L94.03 403.73L94.01 403.62L94 403.51L93.99 403.41L93.98 403.3L93.98 403.18L93.98 298.28L93.98 298.18L93.99 298.08L94 297.97L94.01 297.87L94.03 297.77L94.05 297.67L94.08 297.57L94.1 297.48L94.14 297.38L94.17 297.29L94.21 297.2L94.26 297.11L94.3 297.02L94.35 296.93L94.41 296.85L94.46 296.76L94.52 296.68L94.58 296.61L94.65 296.53L94.72 296.46L94.79 296.39L94.86 296.32L94.94 296.26L95.02 296.2L95.1 296.14L95.18 296.08L95.27 296.03L95.36 295.98L95.45 295.94L95.54 295.89L95.63 295.86L95.73 295.82L95.83 295.79L95.93 295.76L96.04 295.74L96.14 295.72L96.25 295.7L96.36 295.69L96.47 295.69L96.58 295.68L258.18 295.68L258.29 295.69L258.4 295.69ZM211.48 355.08L211.47 355.17L211.46 355.25L211.44 355.33L211.43 355.41L211.41 355.48L211.39 355.56L211.36 355.63L211.34 355.71L211.31 355.78L211.28 355.85L211.25 355.92L211.21 355.99L211.18 356.05L211.14 356.12L211.1 356.18L211.05 356.25L211.01 356.31L210.96 356.37L210.92 356.43L210.87 356.48L210.81 356.54L210.76 356.59L210.71 356.65L210.65 356.7L210.59 356.75L210.53 356.79L210.47 356.84L210.41 356.88L210.35 356.93L210.28 356.97L210.22 357.01L210.15 357.05L210.08 357.08L210.01 357.12L209.94 357.15L209.87 357.18L209.8 357.21L209.73 357.24L209.65 357.26L209.58 357.28L209.46 357.32L209.34 357.36L209.22 357.4L209.1 357.44L208.98 357.48L208.86 357.52L208.74 357.56L208.62 357.61L208.5 357.65L208.38 357.7L208.26 357.74L208.14 357.79L208.02 357.83L207.9 357.88L207.78 357.93L207.66 357.97L207.55 358.02L207.43 358.07L207.31 358.12L207.19 358.17L207.07 358.22L206.95 358.27L206.84 358.33L206.72 358.38L206.6 358.43L206.49 358.49L206.37 358.54L206.25 358.59L206.14 358.65L206.02 358.7L205.9 358.76L205.79 358.82L205.67 358.87L205.56 358.93L205.45 358.99L205.33 359.05L205.22 359.11L205.1 359.17L204.99 359.22L204.88 359.28L204.81 359.32L204.74 359.35L204.67 359.39L204.6 359.42L204.53 359.44L204.46 359.47L204.38 359.49L204.31 359.51L204.23 359.53L204.16 359.55L204.08 359.56L204.01 359.57L203.93 359.59L203.85 359.59L203.78 359.6L203.7 359.6L203.62 359.6L203.54 359.6L203.47 359.6L203.39 359.6L203.31 359.59L203.24 359.58L203.16 359.57L203.09 359.56L203.01 359.54L202.94 359.53L202.86 359.51L202.79 359.49L202.71 359.46L202.64 359.44L202.57 359.41L202.5 359.38L202.43 359.35L202.36 359.32L202.3 359.29L202.23 359.25L202.16 359.21L202.1 359.17L202.04 359.13L201.98 359.08L201.91 359.03L201.55 358.76L201.38 358.63L200.47 357.95L200.18 357.73L196.51 354.98L195.98 354.58L192.08 358.48L196.68 364.48L196.72 364.55L196.76 364.61L196.8 364.67L196.84 364.74L196.88 364.8L196.91 364.87L196.95 364.94L196.98 365.01L197.01 365.08L197.03 365.15L197.06 365.22L197.08 365.29L197.1 365.37L197.12 365.44L197.14 365.52L197.15 365.59L197.16 365.67L197.18 365.74L197.18 365.82L197.19 365.9L197.2 365.97L197.2 366.05L197.2 366.13L197.2 366.21L197.19 366.28L197.19 366.36L197.18 366.44L197.17 366.51L197.16 366.59L197.14 366.66L197.13 366.74L197.11 366.81L197.09 366.89L197.06 366.96L197.04 367.03L197.01 367.11L196.98 367.18L196.95 367.25L196.91 367.32L196.88 367.38L196.81 367.5L196.75 367.61L196.68 367.72L196.62 367.83L196.55 367.95L196.49 368.06L196.43 368.17L196.37 368.29L196.31 368.4L196.26 368.51L196.2 368.63L196.14 368.74L196.09 368.85L196.03 368.97L195.98 369.08L195.93 369.2L195.88 369.31L195.83 369.43L195.78 369.54L195.73 369.66L195.68 369.78L195.63 369.89L195.59 370.01L195.54 370.13L195.49 370.25L195.45 370.36L195.4 370.48L195.36 370.6L195.32 370.72L195.28 370.84L195.23 370.96L195.19 371.09L195.15 371.21L195.11 371.33L195.07 371.46L195.03 371.58L194.99 371.71L194.95 371.83L194.92 371.96L194.88 372.08L194.85 372.16L194.83 372.23L194.8 372.31L194.77 372.38L194.74 372.45L194.7 372.52L194.67 372.59L194.63 372.66L194.59 372.72L194.55 372.79L194.51 372.85L194.46 372.92L194.41 372.98L194.36 373.04L194.31 373.1L194.26 373.16L194.21 373.21L194.15 373.27L194.1 373.32L194.04 373.37L193.98 373.42L193.92 373.47L193.86 373.52L193.8 373.56L193.73 373.6L193.67 373.64L193.6 373.68L193.54 373.72L193.47 373.75L193.4 373.79L193.33 373.82L193.26 373.84L193.19 373.87L193.12 373.89L193.05 373.91L192.97 373.93L192.9 373.95L192.83 373.96L192.75 373.98L192.68 373.98L185.28 374.98L185.28 380.48L188.24 380.88L192.68 381.48L192.76 381.49L192.84 381.5L192.92 381.52L193 381.53L193.08 381.55L193.15 381.57L193.23 381.6L193.3 381.62L193.37 381.65L193.44 381.68L193.51 381.72L193.58 381.75L193.65 381.79L193.71 381.83L193.78 381.87L193.84 381.91L193.9 381.95L193.96 382L194.02 382.05L194.08 382.1L194.13 382.15L194.19 382.2L194.24 382.26L194.29 382.31L194.34 382.37L194.39 382.43L194.43 382.49L194.48 382.55L194.52 382.62L194.56 382.68L194.6 382.75L194.64 382.81L194.68 382.88L194.71 382.95L194.74 383.02L194.77 383.09L194.8 383.16L194.83 383.24L194.85 383.31L194.88 383.38L194.92 383.5L194.95 383.62L194.99 383.74L195.03 383.86L195.08 383.98L195.12 384.1L195.16 384.22L195.2 384.34L195.25 384.46L195.29 384.58L195.33 384.7L195.38 384.82L195.43 384.94L195.47 385.06L195.52 385.18L195.57 385.3L195.62 385.42L195.67 385.54L195.72 385.65L195.77 385.77L195.82 385.89L195.87 386.01L195.92 386.13L195.97 386.24L196.03 386.36L196.08 386.48L196.13 386.59L196.19 386.71L196.24 386.83L196.3 386.94L196.35 387.06L196.41 387.17L196.47 387.29L196.53 387.4L196.58 387.52L196.64 387.63L196.7 387.75L196.76 387.86L196.82 387.97L196.88 388.08L196.91 388.15L196.95 388.22L196.98 388.29L197.01 388.36L197.04 388.43L197.06 388.51L197.09 388.58L197.11 388.65L197.13 388.73L197.14 388.8L197.16 388.88L197.17 388.96L197.18 389.03L197.19 389.11L197.19 389.19L197.2 389.26L197.2 389.34L197.2 389.42L197.2 389.49L197.19 389.57L197.18 389.65L197.18 389.73L197.16 389.8L197.15 389.88L197.14 389.95L197.12 390.03L197.1 390.1L197.08 390.18L197.06 390.25L197.03 390.32L197.01 390.39L196.98 390.46L196.95 390.53L196.91 390.6L196.88 390.67L196.84 390.73L196.8 390.8L196.76 390.86L196.72 390.92L196.68 390.98L195.09 393.1L194.28 394.18L193.65 395.02L193.31 395.47L192.95 395.95L192.57 396.46L192.18 396.98L196.08 400.88L196.61 400.49L197.59 399.75L198.48 399.08L199.63 398.22L200.28 397.73L200.83 397.32L201.29 396.98L201.65 396.71L201.79 396.6L201.91 396.51L202.08 396.38L202.14 396.34L202.2 396.3L202.26 396.26L202.33 396.22L202.4 396.18L202.46 396.15L202.53 396.12L202.6 396.09L202.67 396.06L202.74 396.03L202.81 396L202.89 395.98L202.96 395.96L203.04 395.94L203.11 395.93L203.19 395.91L203.26 395.9L203.34 395.89L203.41 395.88L203.49 395.87L203.57 395.87L203.64 395.86L203.72 395.86L203.8 395.87L203.88 395.87L203.95 395.88L204.03 395.88L204.11 395.89L204.18 395.91L204.26 395.92L204.33 395.94L204.41 395.96L204.48 395.98L204.56 396L204.63 396.02L204.7 396.05L204.77 396.08L204.84 396.11L204.91 396.15L204.98 396.18L205.09 396.25L205.2 396.32L205.32 396.38L205.43 396.45L205.54 396.51L205.65 396.57L205.77 396.63L205.88 396.69L205.99 396.75L206.11 396.81L206.22 396.86L206.33 396.92L206.45 396.97L206.56 397.03L206.68 397.08L206.79 397.13L206.91 397.18L207.02 397.24L207.14 397.29L207.25 397.33L207.37 397.38L207.49 397.43L207.6 397.48L207.72 397.52L207.84 397.57L207.96 397.61L208.08 397.66L208.2 397.7L208.32 397.74L208.44 397.79L208.56 397.83L208.68 397.87L208.8 397.91L208.93 397.95L209.05 397.99L209.17 398.03L209.3 398.07L209.42 398.11L209.55 398.15L209.68 398.18L209.75 398.21L209.83 398.23L209.9 398.26L209.97 398.29L210.04 398.32L210.11 398.36L210.18 398.39L210.25 398.43L210.32 398.47L210.38 398.51L210.45 398.56L210.51 398.6L210.57 398.65L210.63 398.7L210.69 398.75L210.75 398.8L210.81 398.85L210.86 398.91L210.91 398.96L210.97 399.02L211.02 399.08L211.06 399.14L211.11 399.2L211.15 399.26L211.2 399.33L211.24 399.39L211.28 399.46L211.31 399.52L211.35 399.59L211.38 399.66L211.41 399.73L211.44 399.8L211.46 399.87L211.49 399.94L211.51 400.01L211.53 400.09L211.54 400.16L211.56 400.24L211.57 400.31L211.58 400.38L212.58 407.78L218.08 407.78L219.08 400.38L219.09 400.31L219.11 400.24L219.13 400.16L219.15 400.09L219.18 400.01L219.2 399.94L219.23 399.87L219.26 399.8L219.28 399.73L219.32 399.66L219.35 399.59L219.38 399.52L219.42 399.46L219.45 399.39L219.49 399.33L219.53 399.26L219.57 399.2L219.62 399.14L219.66 399.08L219.7 399.02L219.75 398.96L219.8 398.91L219.84 398.85L219.89 398.8L219.94 398.75L219.99 398.7L220.04 398.65L220.1 398.6L220.15 398.56L220.2 398.51L220.26 398.47L220.31 398.43L220.37 398.39L220.43 398.36L220.48 398.32L220.54 398.29L220.6 398.26L220.66 398.23L220.72 398.21L220.78 398.18L220.9 398.15L221.02 398.11L221.14 398.07L221.26 398.03L221.38 397.99L221.5 397.95L221.62 397.9L221.74 397.86L221.86 397.82L221.98 397.77L222.1 397.73L222.22 397.68L222.33 397.64L222.45 397.59L222.57 397.54L222.69 397.49L222.81 397.45L222.93 397.4L223.05 397.35L223.17 397.3L223.28 397.25L223.4 397.19L223.52 397.14L223.64 397.09L223.75 397.04L223.87 396.98L223.99 396.93L224.1 396.87L224.22 396.82L224.34 396.76L224.45 396.71L224.57 396.65L224.68 396.59L224.8 396.54L224.91 396.48L225.03 396.42L225.14 396.36L225.25 396.3L225.37 396.24L225.48 396.18L225.55 396.15L225.62 396.11L225.69 396.08L225.76 396.05L225.83 396.02L225.9 396L225.97 395.98L226.05 395.96L226.12 395.94L226.2 395.92L226.27 395.91L226.35 395.89L226.43 395.88L226.5 395.88L226.58 395.87L226.66 395.87L226.73 395.86L226.81 395.86L226.89 395.87L226.97 395.87L227.04 395.88L227.12 395.89L227.2 395.9L227.27 395.91L227.35 395.93L227.42 395.94L227.5 395.96L227.57 395.98L227.64 396L227.71 396.03L227.79 396.06L227.86 396.09L227.93 396.12L227.99 396.15L228.06 396.18L228.13 396.22L228.19 396.26L228.26 396.3L228.32 396.34L228.38 396.38L234.28 400.88L238.18 396.98L236.07 394.18L234.61 392.23L234.27 391.78L234.13 391.58L233.68 390.98L233.63 390.92L233.59 390.86L233.55 390.8L233.51 390.73L233.48 390.67L233.44 390.6L233.41 390.53L233.38 390.46L233.35 390.39L233.32 390.32L233.3 390.25L233.28 390.18L233.26 390.1L233.24 390.03L233.22 389.95L233.2 389.88L233.19 389.8L233.18 389.73L233.17 389.65L233.17 389.57L233.16 389.49L233.16 389.42L233.16 389.34L233.16 389.26L233.16 389.19L233.17 389.11L233.18 389.03L233.19 388.96L233.2 388.88L233.21 388.8L233.23 388.73L233.25 388.65L233.27 388.58L233.29 388.51L233.32 388.43L233.35 388.36L233.38 388.29L233.41 388.22L233.44 388.15L233.48 388.08L233.55 387.97L233.61 387.86L233.68 387.75L233.74 387.63L233.8 387.52L233.86 387.41L233.92 387.3L233.98 387.18L234.04 387.07L234.1 386.96L234.16 386.84L234.21 386.73L234.27 386.61L234.32 386.5L234.37 386.39L234.43 386.27L234.48 386.16L234.53 386.04L234.58 385.93L234.63 385.81L234.68 385.69L234.72 385.58L234.77 385.46L234.82 385.34L234.86 385.22L234.91 385.1L234.95 384.99L235 384.87L235.04 384.75L235.08 384.62L235.12 384.5L235.16 384.38L235.21 384.26L235.25 384.14L235.29 384.01L235.33 383.89L235.36 383.76L235.4 383.64L235.44 383.51L235.48 383.38L235.5 383.31L235.53 383.24L235.56 383.16L235.59 383.09L235.62 383.02L235.65 382.95L235.69 382.88L235.73 382.81L235.77 382.75L235.81 382.68L235.85 382.62L235.9 382.55L235.94 382.49L235.99 382.43L236.04 382.37L236.09 382.31L236.15 382.26L236.2 382.2L236.26 382.15L236.32 382.1L236.37 382.05L236.43 382L236.5 381.95L236.56 381.91L236.62 381.87L236.69 381.83L236.75 381.79L236.82 381.75L236.89 381.72L236.95 381.68L237.02 381.65L237.09 381.62L237.17 381.6L237.24 381.57L237.31 381.55L237.38 381.53L237.46 381.52L237.53 381.5L237.6 381.49L237.68 381.48L245.08 380.48L245.08 374.98L237.68 373.98L237.6 373.98L237.52 373.96L237.44 373.95L237.36 373.93L237.28 373.91L237.2 373.89L237.13 373.87L237.06 373.84L236.98 373.82L236.91 373.79L236.84 373.75L236.77 373.72L236.71 373.68L236.64 373.64L236.58 373.6L236.52 373.56L236.45 373.52L236.39 373.47L236.34 373.42L236.28 373.37L236.22 373.32L236.17 373.27L236.12 373.21L236.07 373.16L236.02 373.1L235.97 373.04L235.92 372.98L235.88 372.92L235.84 372.85L235.79 372.79L235.75 372.72L235.72 372.66L235.68 372.59L235.65 372.52L235.61 372.45L235.58 372.38L235.55 372.31L235.53 372.23L235.5 372.16L235.48 372.08L235.44 371.96L235.4 371.84L235.36 371.72L235.32 371.6L235.28 371.48L235.24 371.36L235.2 371.24L235.16 371.13L235.11 371.01L235.07 370.89L235.02 370.77L234.98 370.65L234.93 370.53L234.88 370.41L234.84 370.29L234.79 370.17L234.74 370.05L234.69 369.93L234.64 369.81L234.59 369.7L234.54 369.58L234.49 369.46L234.44 369.34L234.38 369.23L234.33 369.11L234.28 368.99L234.22 368.88L234.17 368.76L234.11 368.64L234.06 368.53L234 368.41L233.95 368.3L233.89 368.18L233.83 368.07L233.77 367.95L233.72 367.84L233.66 367.72L233.6 367.61L233.54 367.5L233.48 367.38L233.44 367.32L233.41 367.25L233.38 367.18L233.35 367.11L233.32 367.03L233.29 366.96L233.27 366.89L233.25 366.81L233.23 366.74L233.21 366.66L233.2 366.59L233.19 366.51L233.18 366.44L233.17 366.36L233.16 366.28L233.16 366.21L233.16 366.13L233.16 366.05L233.16 365.97L233.17 365.9L233.17 365.82L233.18 365.74L233.19 365.67L233.2 365.59L233.22 365.52L233.24 365.44L233.26 365.37L233.28 365.29L233.3 365.22L233.32 365.15L233.35 365.08L233.38 365.01L233.41 364.94L233.44 364.87L233.48 364.8L233.51 364.74L233.55 364.67L233.59 364.61L233.63 364.55L233.68 364.48L238.28 358.48L234.38 354.58L228.48 359.08L228.42 359.13L228.36 359.17L228.29 359.21L228.23 359.25L228.16 359.29L228.09 359.32L228.03 359.35L227.96 359.38L227.89 359.41L227.81 359.44L227.74 359.46L227.67 359.49L227.6 359.51L227.52 359.53L227.45 359.54L227.37 359.56L227.3 359.57L227.22 359.58L227.14 359.59L227.07 359.6L226.99 359.6L226.91 359.6L226.83 359.6L226.76 359.6L226.68 359.6L226.6 359.59L226.53 359.59L226.45 359.57L226.37 359.56L226.3 359.55L226.22 359.53L226.15 359.51L226.07 359.49L226 359.47L225.93 359.44L225.86 359.42L225.79 359.39L225.72 359.35L225.65 359.32L225.58 359.28L225.47 359.22L225.35 359.15L225.24 359.09L225.13 359.02L225.02 358.96L224.9 358.9L224.79 358.84L224.68 358.78L224.56 358.72L224.45 358.66L224.34 358.61L224.22 358.55L224.11 358.49L223.99 358.44L223.88 358.39L223.77 358.34L223.65 358.28L223.54 358.23L223.42 358.18L223.3 358.13L223.19 358.09L223.07 358.04L222.95 357.99L222.84 357.95L222.72 357.9L222.6 357.85L222.48 357.81L222.36 357.77L222.24 357.72L222.12 357.68L222 357.64L221.88 357.6L221.75 357.56L221.63 357.52L221.51 357.48L221.38 357.44L221.26 357.4L221.13 357.36L221.01 357.32L220.88 357.28L220.8 357.26L220.73 357.23L220.66 357.21L220.58 357.18L220.51 357.14L220.44 357.11L220.37 357.07L220.31 357.04L220.24 357L220.17 356.95L220.11 356.91L220.05 356.87L219.98 356.82L219.92 356.77L219.86 356.72L219.81 356.67L219.75 356.62L219.7 356.56L219.64 356.5L219.59 356.45L219.54 356.39L219.49 356.33L219.45 356.27L219.4 356.2L219.36 356.14L219.32 356.08L219.28 356.01L219.24 355.94L219.21 355.88L219.18 355.81L219.15 355.74L219.12 355.67L219.09 355.6L219.07 355.53L219.05 355.45L219.03 355.38L219.01 355.31L219 355.23L218.99 355.16L218.98 355.08L218.68 352.86L217.98 347.68L212.48 347.68L211.48 355.08ZM98.98 400.78L188.08 400.78L186.68 399.38L186.61 399.31L186.55 399.23L186.49 399.15L186.43 399.07L186.38 398.99L186.33 398.9L186.28 398.82L186.24 398.73L186.19 398.64L186.15 398.56L186.12 398.47L186.09 398.38L186.06 398.29L186.03 398.19L186.01 398.1L185.99 398.01L185.97 397.92L185.96 397.82L185.95 397.73L185.94 397.63L185.94 397.54L185.94 397.45L185.94 397.35L185.94 397.26L185.95 397.17L185.96 397.08L185.98 396.98L186 396.89L186.02 396.8L186.05 396.71L186.07 396.62L186.11 396.54L186.14 396.45L186.18 396.36L186.22 396.28L186.27 396.2L186.31 396.12L186.37 396.04L186.42 395.96L186.48 395.88L191.38 389.38L191.32 389.25L191.29 389.18L191.26 389.11L191.23 389.05L191.2 388.98L191.17 388.91L191.14 388.84L191.11 388.78L191.08 388.71L191.05 388.64L191.02 388.57L190.99 388.51L190.96 388.44L190.93 388.37L190.9 388.3L190.88 388.24L190.85 388.17L190.82 388.1L190.79 388.03L190.76 387.97L190.73 387.9L190.71 387.83L190.68 387.76L190.65 387.7L190.63 387.63L190.6 387.56L190.57 387.49L190.55 387.43L190.52 387.36L190.49 387.29L190.47 387.22L190.44 387.16L190.42 387.09L190.4 387.02L190.37 386.95L190.35 386.89L190.32 386.82L190.3 386.75L190.28 386.68L182.28 385.58L182.18 385.57L182.09 385.55L181.99 385.52L181.9 385.5L181.81 385.47L181.72 385.44L181.63 385.4L181.54 385.36L181.45 385.32L181.37 385.28L181.29 385.23L181.21 385.18L181.13 385.13L181.05 385.07L180.98 385.02L180.91 384.96L180.84 384.9L180.77 384.83L180.7 384.77L180.64 384.7L180.58 384.63L180.52 384.55L180.47 384.48L180.41 384.4L180.36 384.33L180.32 384.25L180.27 384.16L180.23 384.08L180.19 384L180.15 383.91L180.12 383.82L180.09 383.73L180.07 383.64L180.04 383.55L180.02 383.46L180.01 383.37L179.99 383.27L179.99 383.18L179.98 383.08L179.98 382.98L179.98 372.88L179.98 372.79L179.99 372.69L179.99 372.6L180.01 372.5L180.02 372.41L180.04 372.32L180.07 372.22L180.09 372.13L180.12 372.05L180.15 371.96L180.19 371.87L180.23 371.79L180.27 371.7L180.32 371.62L180.36 371.54L180.41 371.47L180.47 371.39L180.52 371.31L180.58 371.24L180.64 371.17L180.7 371.1L180.77 371.04L180.84 370.97L180.91 370.91L180.98 370.85L181.05 370.8L181.13 370.74L181.21 370.69L181.29 370.64L181.37 370.59L181.45 370.55L181.54 370.51L181.63 370.47L181.72 370.43L181.81 370.4L181.9 370.37L181.99 370.34L182.09 370.32L182.18 370.3L182.28 370.28L190.28 369.18L190.3 369.12L190.32 369.05L190.35 368.98L190.37 368.91L190.4 368.85L190.42 368.78L190.44 368.71L190.47 368.64L190.49 368.58L190.52 368.51L190.55 368.44L190.57 368.37L190.6 368.31L190.63 368.24L190.65 368.17L190.68 368.1L190.71 368.04L190.73 367.97L190.76 367.9L190.79 367.83L190.82 367.77L190.85 367.7L190.88 367.63L190.9 367.56L190.93 367.5L190.96 367.43L190.99 367.36L191.02 367.29L191.05 367.23L191.08 367.16L191.11 367.09L191.14 367.02L191.17 366.96L191.2 366.89L191.23 366.82L191.26 366.75L191.29 366.69L191.32 366.62L191.38 366.48L186.48 359.98L186.42 359.9L186.37 359.82L186.31 359.73L186.27 359.64L186.22 359.55L186.18 359.47L186.14 359.38L186.11 359.28L186.07 359.19L186.05 359.1L186.02 359.01L186 358.91L185.98 358.82L185.96 358.73L185.95 358.63L185.94 358.54L185.94 358.44L185.94 358.35L185.94 358.25L185.94 358.16L185.95 358.07L185.96 357.97L185.97 357.88L185.99 357.79L186.01 357.7L186.03 357.61L186.06 357.52L186.09 357.43L186.12 357.34L186.15 357.26L186.19 357.17L186.24 357.09L186.28 357.01L186.33 356.93L186.38 356.85L186.43 356.77L186.49 356.7L186.55 356.62L186.61 356.55L186.68 356.48L193.88 349.28L193.95 349.22L194.03 349.16L194.11 349.1L194.19 349.04L194.27 348.98L194.36 348.93L194.44 348.89L194.53 348.84L194.62 348.8L194.71 348.76L194.8 348.73L194.89 348.69L194.98 348.66L195.07 348.64L195.16 348.61L195.25 348.59L195.35 348.58L195.44 348.56L195.53 348.55L195.63 348.55L195.72 348.54L195.82 348.54L195.91 348.54L196 348.55L196.1 348.56L196.19 348.57L196.28 348.59L196.37 348.6L196.46 348.63L196.55 348.65L196.64 348.68L196.73 348.71L196.81 348.75L196.9 348.78L196.98 348.83L197.06 348.87L197.15 348.92L197.22 348.97L197.3 349.03L197.38 349.08L203.78 353.98L203.91 353.92L203.98 353.89L204.05 353.86L204.12 353.83L204.18 353.8L204.25 353.77L204.32 353.75L204.39 353.72L204.45 353.69L204.52 353.66L204.59 353.63L204.66 353.6L204.72 353.57L204.79 353.54L204.86 353.51L204.93 353.48L204.99 353.45L205.06 353.42L205.13 353.4L205.2 353.37L205.26 353.34L205.33 353.31L205.4 353.29L205.47 353.26L205.53 353.23L205.6 353.21L205.67 353.18L205.74 353.15L205.8 353.13L205.87 353.1L205.94 353.08L206.01 353.05L206.07 353.03L206.14 353L206.21 352.98L206.28 352.95L206.34 352.93L206.41 352.91L206.48 352.88L207.58 344.88L207.59 344.79L207.61 344.69L207.64 344.6L207.66 344.5L207.69 344.41L207.73 344.32L207.76 344.23L207.8 344.15L207.84 344.06L207.89 343.98L207.93 343.89L207.98 343.81L208.03 343.74L208.09 343.66L208.15 343.59L208.21 343.51L208.27 343.44L208.33 343.38L208.4 343.31L208.47 343.25L208.54 343.19L208.61 343.13L208.68 343.07L208.76 343.02L208.84 342.97L208.92 342.92L209 342.88L209.08 342.84L209.17 342.8L209.25 342.76L209.34 342.73L209.43 342.7L209.52 342.67L209.61 342.65L209.7 342.63L209.8 342.61L209.89 342.6L209.98 342.59L210.08 342.59L210.18 342.58L220.28 342.58L220.38 342.59L220.47 342.59L220.57 342.6L220.66 342.61L220.76 342.63L220.85 342.65L220.94 342.67L221.03 342.7L221.12 342.73L221.2 342.76L221.29 342.8L221.38 342.84L221.46 342.88L221.54 342.92L221.62 342.97L221.7 343.02L221.77 343.07L221.85 343.13L221.92 343.19L221.99 343.25L222.06 343.31L222.13 343.38L222.19 343.44L222.25 343.51L222.31 343.59L222.37 343.66L222.42 343.74L222.47 343.81L222.52 343.89L222.57 343.98L222.61 344.06L222.66 344.15L222.69 344.23L222.73 344.32L222.76 344.41L222.79 344.5L222.82 344.6L222.84 344.69L222.86 344.79L222.88 344.88L223.98 352.88L224.05 352.91L224.11 352.93L224.18 352.95L224.25 352.98L224.32 353L224.38 353.03L224.45 353.05L224.52 353.08L224.59 353.1L224.65 353.13L224.72 353.15L224.79 353.18L224.86 353.21L224.92 353.23L224.99 353.26L225.06 353.29L225.13 353.31L225.19 353.34L225.26 353.37L225.33 353.4L225.4 353.42L225.46 353.45L225.53 353.48L225.6 353.51L225.67 353.54L225.73 353.57L225.8 353.6L225.87 353.63L225.94 353.66L226 353.69L226.07 353.72L226.14 353.75L226.21 353.77L226.27 353.8L226.34 353.83L226.41 353.86L226.48 353.89L226.54 353.92L226.68 353.98L233.18 349.08L233.26 349.03L233.35 348.97L233.43 348.92L233.52 348.87L233.61 348.83L233.7 348.78L233.79 348.75L233.88 348.71L233.97 348.68L234.06 348.65L234.16 348.63L234.25 348.6L234.34 348.59L234.44 348.57L234.53 348.56L234.63 348.55L234.72 348.54L234.82 348.54L234.91 348.54L235 348.55L235.1 348.55L235.19 348.56L235.28 348.58L235.37 348.59L235.47 348.61L235.56 348.64L235.65 348.66L235.73 348.69L235.82 348.73L235.91 348.76L235.99 348.8L236.07 348.84L236.16 348.89L236.24 348.93L236.31 348.98L236.39 349.04L236.47 349.1L236.54 349.16L236.61 349.22L236.68 349.28L243.88 356.48L243.94 356.56L244.01 356.64L244.07 356.72L244.12 356.8L244.18 356.88L244.23 356.96L244.28 357.05L244.32 357.14L244.36 357.22L244.4 357.31L244.44 357.4L244.47 357.49L244.5 357.58L244.53 357.68L244.55 357.77L244.57 357.86L244.58 357.95L244.6 358.05L244.61 358.14L244.62 358.23L244.62 358.33L244.62 358.42L244.62 358.52L244.61 358.61L244.6 358.7L244.59 358.79L244.58 358.89L244.56 358.98L244.54 359.07L244.51 359.16L244.48 359.24L244.45 359.33L244.42 359.42L244.38 359.5L244.34 359.59L244.29 359.67L244.24 359.75L244.19 359.83L244.14 359.91L244.08 359.98L239.18 366.38L239.24 366.52L239.27 366.59L239.3 366.65L239.33 366.72L239.36 366.79L239.39 366.86L239.42 366.92L239.45 366.99L239.48 367.06L239.51 367.13L239.54 367.19L239.56 367.26L239.59 367.33L239.62 367.4L239.65 367.46L239.68 367.53L239.71 367.6L239.74 367.67L239.77 367.73L239.79 367.8L239.82 367.87L239.85 367.94L239.88 368L239.9 368.07L239.93 368.14L239.96 368.21L239.98 368.27L240.01 368.34L240.04 368.41L240.06 368.48L240.09 368.54L240.11 368.61L240.14 368.68L240.16 368.75L240.19 368.81L240.21 368.88L240.23 368.95L240.26 369.02L240.28 369.08L248.28 370.18L248.38 370.2L248.47 370.22L248.57 370.24L248.66 370.27L248.75 370.3L248.84 370.33L248.93 370.37L249.02 370.41L249.1 370.45L249.19 370.49L249.27 370.54L249.35 370.59L249.43 370.64L249.5 370.7L249.58 370.75L249.65 370.81L249.72 370.87L249.79 370.94L249.85 371L249.92 371.07L249.98 371.14L250.03 371.21L250.09 371.29L250.14 371.37L250.19 371.44L250.24 371.52L250.29 371.6L250.33 371.69L250.37 371.77L250.4 371.86L250.43 371.95L250.46 372.03L250.49 372.12L250.51 372.22L250.53 372.31L250.55 372.4L250.56 372.5L250.57 372.59L250.58 372.69L250.58 372.78L250.58 382.78L250.58 382.88L250.57 382.98L250.56 383.07L250.55 383.17L250.53 383.26L250.51 383.35L250.49 383.44L250.46 383.53L250.43 383.62L250.4 383.71L250.37 383.8L250.33 383.88L250.29 383.96L250.24 384.05L250.19 384.13L250.14 384.2L250.09 384.28L250.03 384.35L249.98 384.43L249.92 384.5L249.85 384.57L249.79 384.63L249.72 384.7L249.65 384.76L249.58 384.82L249.5 384.87L249.43 384.93L249.35 384.98L249.27 385.03L249.19 385.08L249.1 385.12L249.02 385.16L248.93 385.2L248.84 385.24L248.75 385.27L248.66 385.3L248.57 385.32L248.47 385.35L248.38 385.37L248.28 385.38L240.28 386.48L240.26 386.55L240.23 386.62L240.21 386.69L240.19 386.75L240.16 386.82L240.14 386.89L240.11 386.96L240.09 387.02L240.06 387.09L240.04 387.16L240.01 387.23L239.98 387.29L239.96 387.36L239.93 387.43L239.9 387.5L239.88 387.56L239.85 387.63L239.82 387.7L239.79 387.77L239.77 387.83L239.74 387.9L239.71 387.97L239.68 388.04L239.65 388.1L239.62 388.17L239.59 388.24L239.56 388.31L239.54 388.37L239.51 388.44L239.48 388.51L239.45 388.58L239.42 388.64L239.39 388.71L239.36 388.78L239.33 388.85L239.3 388.91L239.27 388.98L239.24 389.05L239.18 389.18L244.08 395.68L244.14 395.77L244.19 395.85L244.24 395.94L244.29 396.03L244.34 396.11L244.38 396.2L244.42 396.29L244.45 396.38L244.48 396.48L244.51 396.57L244.54 396.66L244.56 396.76L244.58 396.85L244.59 396.94L244.6 397.04L244.61 397.13L244.62 397.23L244.62 397.32L244.62 397.42L244.62 397.51L244.61 397.6L244.6 397.7L244.58 397.79L244.57 397.88L244.55 397.97L244.53 398.06L244.5 398.15L244.47 398.24L244.44 398.33L244.4 398.41L244.36 398.5L244.32 398.58L244.28 398.66L244.23 398.74L244.18 398.82L244.12 398.9L244.07 398.97L244.01 399.04L243.94 399.12L243.88 399.18L242.48 400.58L242.48 400.78L255.38 400.78L255.38 325.28L98.98 325.28L98.98 400.78ZM99.18 319.88L255.58 319.88L255.58 300.98L99.18 300.98L99.18 319.88Z" id="bzs3NsMPl"></path><path d="M218.1 363.74L219.39 364.06L220.64 364.48L221.83 365.02L222.97 365.66L224.03 366.4L225.02 367.23L225.94 368.14L226.77 369.13L227.5 370.2L228.14 371.33L228.68 372.52L229.11 373.77L229.42 375.07L229.61 376.41L229.68 377.78L229.61 379.16L229.42 380.5L229.11 381.8L228.68 383.05L228.14 384.24L227.5 385.37L226.77 386.44L225.94 387.43L225.02 388.34L224.03 389.17L222.97 389.91L221.83 390.55L220.64 391.09L219.39 391.51L218.1 391.83L216.76 392.02L215.38 392.08L214 392.02L212.66 391.83L211.36 391.51L210.11 391.09L208.92 390.55L207.79 389.91L206.72 389.17L205.73 388.34L204.82 387.43L203.99 386.44L203.25 385.37L202.61 384.24L202.08 383.05L201.65 381.8L201.34 380.5L201.14 379.16L201.08 377.78L201.14 376.41L201.34 375.07L201.65 373.77L202.08 372.52L202.61 371.33L203.25 370.2L203.99 369.13L204.82 368.14L205.73 367.23L206.72 366.4L207.79 365.66L208.92 365.02L210.11 364.48L211.36 364.06L212.66 363.74L214 363.55L215.38 363.48L216.76 363.55L218.1 363.74ZM212.76 369.07L211.55 369.53L210.43 370.16L209.42 370.93L208.52 371.82L207.75 372.84L207.13 373.96L206.67 375.17L206.38 376.45L206.28 377.78L206.38 379.12L206.67 380.4L207.13 381.61L207.75 382.73L208.52 383.74L209.42 384.64L210.43 385.41L211.55 386.03L212.76 386.5L214.04 386.79L215.38 386.88L216.72 386.79L218 386.5L219.2 386.03L220.32 385.41L221.34 384.64L222.24 383.74L223.01 382.73L223.63 381.61L224.09 380.4L224.38 379.12L224.48 377.78L224.38 376.45L224.09 375.17L223.63 373.96L223.01 372.84L222.24 371.82L221.34 370.93L220.32 370.16L219.2 369.53L218 369.07L216.72 368.78L215.38 368.68L214.04 368.78L212.76 369.07Z" id="e2Wx9M04r"></path></defs><g><g><use xlink:href="#f1kvLRXcFP" opacity="1" fill="#2b3038" fill-opacity="1"></use><g><use xlink:href="#f1kvLRXcFP" opacity="1" fill-opacity="0" stroke="#000000" stroke-width="1" stroke-opacity="0"></use></g></g><g><use xlink:href="#a3wR1KKzs" opacity="1" fill="#2b3038" fill-opacity="1"></use><g><use xlink:href="#a3wR1KKzs" opacity="1" fill-opacity="0" stroke="#000000" stroke-width="1" stroke-opacity="0"></use></g></g><g><use xlink:href="#ephB3shc7" opacity="1" fill="#2b3038" fill-opacity="1"></use><g><use xlink:href="#ephB3shc7" opacity="1" fill-opacity="0" stroke="#000000" stroke-width="1" stroke-opacity="0"></use></g></g><g><use xlink:href="#g1lUGFDjbb" opacity="1" fill="#2b3038" fill-opacity="1"></use><g><use xlink:href="#g1lUGFDjbb" opacity="1" fill-opacity="0" stroke="#000000" stroke-width="1" stroke-opacity="0"></use></g></g><g><use xlink:href="#b2l20v2DIr" opacity="1" fill="#2b3038" fill-opacity="1"></use><g><use xlink:href="#b2l20v2DIr" opacity="1" fill-opacity="0" stroke="#000000" stroke-width="1" stroke-opacity="0"></use></g></g><g><use xlink:href="#bzs3NsMPl" opacity="1" fill="#2b3038" fill-opacity="1"></use><g><use xlink:href="#bzs3NsMPl" opacity="1" fill-opacity="0" stroke="#000000" stroke-width="1" stroke-opacity="0"></use></g></g><g><use xlink:href="#e2Wx9M04r" opacity="1" fill="#2b3038" fill-opacity="1"></use><g><use xlink:href="#e2Wx9M04r" opacity="1" fill-opacity="0" stroke="#000000" stroke-width="1" stroke-opacity="0"></use></g></g></g></svg>