<svg id="Layer_1" data-name="Layer 1" xmlns="http://www.w3.org/2000/svg" viewBox="0 0 500 500"><defs><style>.cls-1{fill:#231f20;}</style></defs><path class="cls-1" d="M210.39,153.2l3.13-9.47,72.08.08a3.74,3.74,0,0,0,3.57-4.88L287,132.19l-69.66-.08,3.31-10,58,.07a3.75,3.75,0,0,0,3.58-4.87l-2.12-6.76-55.66-.06,3-9.07,44.59,0a3.75,3.75,0,0,0,3.58-4.87l-2.12-6.75-42.21,0,3-9.08,31.12,0a3.75,3.75,0,0,0,3.57-4.89l-2-6.36a180.93,180.93,0,0,0-18.73-.91c-2.67,0-5.36.08-8,.21a179.84,179.84,0,0,0-45.51,8.26A177.63,177.63,0,0,0,90.55,164.7l151.3.16h0a8.85,8.85,0,0,0-8.4-11.63Z"/><path class="cls-1" d="M419.63,213.18l5.35-3.86A178.92,178.92,0,0,0,279.79,71l47.88,147.38h0a8.85,8.85,0,0,0,8.46-11.59l-8.26-25.42,10,.05,22.24,68.47a3.81,3.81,0,0,0,5.84,1.91l5.68-4.08-21.52-66.25,10.52.05,17.91,55.11a3.8,3.8,0,0,0,5.83,1.91L390,234.5l-17.18-52.89,9.55,0L396.15,224a3.8,3.8,0,0,0,5.83,1.92l5.69-4.08-13-40.1,9.56,0,9.59,29.52A3.81,3.81,0,0,0,419.63,213.18Z"/><path class="cls-1" d="M428.84,223.54,302.39,313.62h0A8.85,8.85,0,0,0,316,318.21l22-15.68,2.95,9.53-58.57,41.71a3.87,3.87,0,0,0-.08,6.25l5.52,4.14,56.74-40.41,3.12,10.05-47.13,33.57a3.87,3.87,0,0,0-.07,6.25l5.52,4.14,45.3-32.27,2.83,9.13L318,380.38a3.88,3.88,0,0,0-.08,6.25l5.53,4.14,34.34-24.46,2.82,9.13-25.2,17.95a3.87,3.87,0,0,0-.07,6.25l5.21,3.9A178,178,0,0,0,395,355.39,177.61,177.61,0,0,0,428.84,223.54Z"/><path class="cls-1" d="M205.17,319.8h0a8.85,8.85,0,0,0,0,14.34l21,15.24-8.09,5.84L159.71,312.9a3.74,3.74,0,0,0-5.74,1.84l-2.24,6.72,56.44,40.92-8.53,6.16-47-34.06a3.73,3.73,0,0,0-5.74,1.85l-2.22,6.74,45,32.64L182,381.29l-36.09-26.17a3.74,3.74,0,0,0-5.74,1.85l-2.22,6.74L172,388.45,164.29,394l-25.21-18.27a3.74,3.74,0,0,0-5.74,1.86L131.25,384a179.34,179.34,0,0,0,121.3,45.2h0A180,180,0,0,0,330,410.3Z"/><path class="cls-1" d="M146.75,256.86,138.68,251l21.91-68.47a3.87,3.87,0,0,0-3.68-5.05H150L128.78,243.8l-8.51-6.19,17.63-55.09a3.87,3.87,0,0,0-3.69-5.05h-6.9l-16.94,52.95-7.73-5.61,13.53-42.29a3.87,3.87,0,0,0-3.69-5.05h-6.9L92.74,217.61,85,212l9.43-29.47a3.87,3.87,0,0,0-3.68-5.05h-6.5a178.87,178.87,0,0,0,37.05,197l47.7-149h0a9.91,9.91,0,0,0-14,5.76Z"/></svg>